# xmcd CD database file
#
# Track frame offsets:
#	150
#	12831
#	24903
#	39378
#	52070
#	67335
#	79800
#	91488
#	105686
#	121190
#	136847
#	152432
#	163925
#	180330
#	198320
#	212612
#	224563
#	236598
#	251258
#	263886
#	278214
#	291613
#	309938
#	330516
#	344938
#
# Disc length: 4775 seconds
#
# Revision: 0
# Processed by: cddbd v1.5.1PL0 Copyright (c) Steve Scherf et al.
# Submitted via: CDex 1.51
#
DISCID=7112a519
DTITLE=Charlie Parker - Proper Box - disc 4 plus extras
DYEAR=1900
DGENRE=Jazz
TTITLE0=420-Blues For Alice
TTITLE1=421-Si Si
TTITLE2=422-Swedish Schnapps
TTITLE3=423-Back Home Blues
TTITLE4=424-Loverman
TTITLE5=Half Nelson (from Best Of Bird On Savoy)
TTITLE6=Milestones (from Best Of Bird On Savoy)
TTITLE7=All The Things You Are (from In A Soulful Mood)
TTITLE8=An Oscar For Treadwell (from Overtime)
TTITLE9=Bloomdido (from Overtime)
TTITLE10=My Melancholy Baby (from Overtime)
TTITLE11=Leap Frog (from Overtime)
TTITLE12=Mohawk (from Overtime)
TTITLE13=Relaxin' With Lee (from Overtime)
TTITLE14=Overtime (from Overtime)
TTITLE15=Victory Ball (from Overtime)
TTITLE16=Groovin' High (Dizzy Gillespie Sextet)
TTITLE17=Salt Peanuts (Dizzy Gillespie and His All Stars Quintet)
TTITLE18=Dizzy Atmosphere (with Dizzy Gillespie) 19450228
TTITLE19=Hot House (with Dizzy Gillespie) 19450511
TTITLE20=Shaw 'Nuff (with Dizzy Gillespie) 19450511
TTITLE21=Hallelujah (with Red Norvo) 19450606
TTITLE22=Slam Slam Blues (with Red Norvo) 19450606
TTITLE23=Redcross (with Tiny Grimes) 19440915
TTITLE24=Tiny's Tempo (with Tiny Grimes) 19440915
EXTD=
EXTT0=
EXTT1=
EXTT2=
EXTT3=
EXTT4=
EXTT5=
EXTT6=
EXTT7=
EXTT8=
EXTT9=
EXTT10=
EXTT11=
EXTT12=
EXTT13=
EXTT14=
EXTT15=
EXTT16=
EXTT17=
EXTT18=
EXTT19=
EXTT20=
EXTT21=
EXTT22=
EXTT23=
EXTT24=
PLAYORDER=
